<svg xmlns="http://www.w3.org/2000/svg" xmlns:xlink="http://www.w3.org/1999/xlink" width="512" zoomAndPan="magnify" viewBox="0 0 384 383.999986" height="512" preserveAspectRatio="xMidYMid meet" version="1.0"><defs><g/></defs><rect x="-38.4" width="460.8" fill="#ffffff" y="-38.399999" height="460.799983" fill-opacity="1"/><rect x="-38.4" width="460.8" fill="#fdfbf6" y="-38.399999" height="460.799983" fill-opacity="1"/><g fill="#000000" fill-opacity="1"><g transform="translate(45.822659, 274.124978)"><g><path d="M 81.546875 -127.75 L 81.546875 -13.65625 L 99.75 -6.46875 L 99.75 0 L 8.40625 0 L 8.40625 -6.46875 L 28.875 -14.53125 L 28.875 -120.921875 C 26.425781 -124.191406 23.421875 -127.253906 19.859375 -130.109375 C 16.304688 -132.972656 11.84375 -135.921875 6.46875 -138.953125 L 6.46875 -144.90625 L 70.53125 -165.546875 L 75.421875 -165.546875 Z M 117.078125 -6.46875 L 135.28125 -13.65625 L 135.28125 -104.46875 C 135.28125 -110.070312 134.34375 -114.648438 132.46875 -118.203125 C 130.601562 -121.765625 127.773438 -124.363281 123.984375 -126 C 120.191406 -127.632812 115.320312 -128.453125 109.375 -128.453125 C 102.84375 -128.453125 96.71875 -127.515625 91 -125.640625 C 85.28125 -123.773438 80.320312 -121.328125 76.125 -118.296875 L 71.046875 -124.25 C 78.984375 -132.882812 86.039062 -139.882812 92.21875 -145.25 C 98.40625 -150.613281 104.09375 -154.722656 109.28125 -157.578125 C 114.476562 -160.441406 119.640625 -162.367188 124.765625 -163.359375 C 129.898438 -164.347656 135.445312 -164.84375 141.40625 -164.84375 C 157.03125 -164.84375 168.691406 -160.207031 176.390625 -150.9375 C 184.097656 -141.664062 187.953125 -127.632812 187.953125 -108.84375 L 187.953125 -14.53125 L 208.59375 -6.46875 L 208.59375 0 L 117.078125 0 Z M 117.078125 -6.46875 "/></g></g></g><g fill="#000000" fill-opacity="1"><g transform="translate(257.920024, 274.124978)"><g><path d="M 43.75 -55.828125 C 52.613281 -55.828125 59.90625 -52.9375 65.625 -47.15625 C 71.34375 -41.382812 74.203125 -34.359375 74.203125 -26.078125 C 74.203125 -17.796875 71.34375 -10.765625 65.625 -4.984375 C 59.90625 0.785156 52.613281 3.671875 43.75 3.671875 C 35 3.671875 27.734375 0.785156 21.953125 -4.984375 C 16.179688 -10.765625 13.296875 -17.796875 13.296875 -26.078125 C 13.296875 -34.359375 16.179688 -41.382812 21.953125 -47.15625 C 27.734375 -52.9375 35 -55.828125 43.75 -55.828125 Z M 43.75 -55.828125 "/></g></g></g></svg>